HIERARCHY
ROOT Hips
{
	OFFSET 0.000000 0.000000 0.000000
	CHANNELS 6 Xposition Yposition Zposition Zrotation Yrotation Xrotation
	JOINT Chest
	{
		OFFSET 0.000000 1.100000 0.000000
		CHANNELS 3 Zrotation Yrotation Xrotation
		JOINT Chest2
		{
			OFFSET 0.000000 1.400000 0.000000
			CHANNELS 3 Zrotation Yrotation Xrotation
			JOINT Neck
			{
				OFFSET 0.000000 0.700000 0.000000
				CHANNELS 3 Zrotation Yrotation Xrotation
				JOINT Head
				{
					OFFSET -0.000000 0.689763 -0.018091
					CHANNELS 3 Zrotation Yrotation Xrotation
					End Site
					{
						OFFSET 0.000000 0.000072 1.636200
					}
				}
			}
			JOINT LeftCollar
			{
				OFFSET -0.000000 0.200000 -0.180000
				CHANNELS 3 Zrotation Yrotation Xrotation
				JOINT LeftShoulder
				{
					OFFSET 1.099722 0.024755 -0.000000
					CHANNELS 3 Zrotation Yrotation Xrotation
					JOINT LeftElbow
					{
						OFFSET 1.464754 0.249007 -0.206134
						CHANNELS 3 Zrotation Yrotation Xrotation
						JOINT LeftWrist
						{
							OFFSET 1.464754 0.249007 0.206134
							CHANNELS 3 Zrotation Yrotation Xrotation
							End Site
							{
								OFFSET 0.976503 0.166005 0.137423
							}
						}
					}
				}
			}
			JOINT RightCollar
			{
				OFFSET -0.000000 0.200000 -0.180000
				CHANNELS 3 Zrotation Yrotation Xrotation
				JOINT RightShoulder
				{
					OFFSET -1.099722 0.024755 0.000000
					CHANNELS 3 Zrotation Yrotation Xrotation
					JOINT RightElbow
					{
						OFFSET -1.464754 0.249007 -0.206134
						CHANNELS 3 Zrotation Yrotation Xrotation
						JOINT RightWrist
						{
							OFFSET -1.464754 0.249007 0.206134
							CHANNELS 3 Zrotation Yrotation Xrotation
							End Site
							{
								OFFSET -0.976503 0.166005 0.137423
							}
						}
					}
				}
			}
		}
	}
	JOINT LeftHip
	{
		OFFSET 0.600000 -0.010000 -0.020000
		CHANNELS 3 Zrotation Yrotation Xrotation
		JOINT LeftKnee
		{
			OFFSET 0.000000 -2.179780 0.297593
			CHANNELS 3 Zrotation Yrotation Xrotation
			JOINT LeftAnkle
			{
				OFFSET -0.000000 -2.179780 -0.297593
				CHANNELS 3 Zrotation Yrotation Xrotation
				End Site
				{
					OFFSET 0.000000 0.000000 1.000000
				}
			}
		}
	}
	JOINT RightHip
	{
		OFFSET -0.600000 -0.010000 -0.020000
		CHANNELS 3 Zrotation Yrotation Xrotation
		JOINT RightKnee
		{
			OFFSET 0.000000 -2.179780 0.297593
			CHANNELS 3 Zrotation Yrotation Xrotation
			JOINT RightAnkle
			{
				OFFSET -0.000000 -2.179780 -0.297593
				CHANNELS 3 Zrotation Yrotation Xrotation
				End Site
				{
					OFFSET 0.000000 0.000000 1.000000
				}
			}
		}
	}
}
MOTION
Frames: 15
Frame Time: 0.016667
0.000000 0.000000 0.000000 0.000000 -0.000000 0.000000 0.000000 -0.000000 0.079298 -0.000000 -0.000000 -0.000000 0.000000 0.000000 0.000002 -0.000000 -0.000000 0.031906 0.000000 -0.000000 -0.000000 -73.429827 -0.048410 0.086349 0.006167 -0.065611 -0.003324 -22.421653 0.000001 0.000002 -0.000000 0.000000 -0.000000 73.876952 0.047954 0.089868 -0.005264 0.065532 -0.000764 24.268799 -0.000002 -0.000001 0.000000 0.000000 0.000001 0.000000 0.000000 0.000001 -0.000000 0.000000 0.000000 -0.000000 0.000000 0.000000 -0.000000 0.000000 -0.000000 -0.000000 0.000000 0.000000 
0.000000 0.000000 0.000000 0.000000 -0.000000 0.000000 0.000000 -0.000000 0.312421 -0.000000 -0.000000 -0.000000 -0.000000 -0.000000 -0.000000 -0.000000 -0.000000 0.125707 0.000000 -0.000000 -0.000001 -73.236615 -0.191764 0.339648 0.024222 -0.258476 -0.013226 -22.421658 0.000000 0.000001 -0.000000 0.000000 0.000001 73.677599 0.190039 0.353488 -0.020672 0.258172 -0.003132 24.268804 -0.000004 -0.000001 0.000000 0.000000 0.000001 0.000000 0.000000 0.000001 -0.000000 0.000000 0.000000 -0.000000 0.000000 0.000000 -0.000000 0.000000 -0.000000 -0.000000 0.000000 0.000000 
0.000000 0.000000 0.000000 0.000000 -0.000000 0.000000 0.000000 -0.000000 0.692215 -0.000000 -0.000000 0.000002 -0.000000 -0.000000 0.000000 -0.000000 -0.000000 0.278523 0.000000 -0.000000 -0.000001 -72.924250 -0.428576 0.750488 0.053416 -0.572631 -0.029773 -22.421655 0.000001 0.000001 -0.000000 0.000000 -0.000001 73.355275 0.425020 0.781103 -0.045543 0.571981 -0.007366 24.268798 -0.000002 -0.000000 0.000000 0.000000 0.000001 0.000000 0.000000 0.000001 -0.000000 0.000000 0.000000 -0.000000 0.000000 0.000000 -0.000000 0.000000 -0.000000 -0.000000 0.000000 0.000000 
0.000000 0.000000 0.000000 0.000000 -0.000000 0.000000 0.000000 -0.000000 1.211526 -0.000000 -0.000000 0.000002 0.000000 0.000000 -0.000001 -0.000000 -0.000000 0.487475 0.000000 -0.000000 -0.000002 -72.501980 -0.758862 1.308584 0.092884 -1.002071 -0.053227 -22.421653 0.000000 0.000002 -0.000000 0.000000 -0.000001 72.919544 0.753273 1.362030 -0.079081 1.000999 -0.013906 24.268799 -0.000002 -0.000000 0.000000 0.000000 0.000001 0.000000 0.000000 0.000001 -0.000000 0.000000 0.000000 -0.000000 0.000000 0.000000 -0.000000 0.000000 -0.000000 -0.000000 0.000000 0.000000 
0.000000 0.000000 0.000000 0.000000 -0.000000 0.000000 0.000000 -0.000000 1.863198 -0.000000 0.000000 0.000002 -0.000000 -0.000000 -0.000002 -0.000000 -0.000000 0.749685 0.000000 -0.000000 -0.000003 -71.980092 -1.183755 2.002908 0.141688 -1.540773 -0.084005 -22.421650 0.000002 0.000001 -0.000000 -0.000000 -0.000001 72.381058 1.176383 2.084827 -0.120415 1.539250 -0.023332 24.268798 -0.000001 0.000000 0.000000 0.000000 0.000001 0.000000 0.000000 0.000001 -0.000000 0.000000 0.000000 -0.000000 0.000000 0.000000 -0.000000 0.000000 -0.000000 -0.000000 0.000000 0.000000 
0.000000 0.000000 0.000000 0.000000 -0.000000 0.000000 0.000000 -0.000000 2.640078 0.000000 -0.000000 -0.000000 0.000000 0.000000 -0.000000 -0.000000 -0.000000 1.062274 0.000000 -0.000000 -0.000001 -71.369746 -1.705138 2.821831 0.198851 -2.182689 -0.122634 -22.421653 0.000001 0.000001 -0.000000 0.000000 0.000001 71.751363 1.696724 2.937422 -0.168624 2.180750 -0.036322 24.268801 -0.000003 -0.000001 0.000000 0.000000 0.000001 0.000000 0.000000 0.000001 -0.000000 0.000000 0.000000 -0.000000 0.000000 0.000000 -0.000000 0.000000 -0.000000 -0.000000 0.000000 0.000000 
0.000000 0.000000 0.000000 0.000000 -0.000000 0.000000 0.000000 -0.000000 3.535009 -0.000000 -0.000000 -0.000000 -0.000000 -0.000000 0.000000 -0.000000 -0.000000 1.422363 -0.000000 -0.000000 0.000000 -70.682841 -2.325288 3.753281 0.263343 -2.921757 -0.169711 -22.421653 0.000000 0.000000 -0.000000 0.000000 0.000000 71.042744 2.317106 3.907276 -0.222762 2.919487 -0.053621 24.268804 -0.000003 -0.000002 0.000000 0.000000 0.000001 0.000000 0.000000 0.000001 -0.000000 0.000000 0.000000 -0.000000 0.000000 0.000000 -0.000000 0.000000 -0.000000 -0.000000 0.000000 0.000000 
0.000000 0.000000 0.000000 0.000000 -0.000000 0.000000 0.000000 -0.000000 4.540838 -0.000000 -0.000000 -0.000002 0.000000 -0.000000 -0.000001 -0.000000 -0.000000 1.827072 0.000000 -0.000000 -0.000002 -69.931793 -3.046528 4.784897 0.334171 -3.751884 -0.225884 -22.421650 -0.000001 0.000000 -0.000000 0.000000 -0.000003 70.268167 3.040376 4.981533 -0.281849 3.749451 -0.075999 24.268804 -0.000003 -0.000002 0.000000 0.000000 0.000001 0.000000 0.000000 0.000001 -0.000000 0.000000 0.000000 -0.000000 0.000000 0.000000 -0.000000 0.000000 -0.000000 -0.000000 0.000000 0.000000 
0.000000 0.000000 0.000000 0.000000 -0.000000 0.000000 0.000000 -0.000000 5.650411 -0.000000 -0.000000 -0.000000 -0.000000 -0.000000 0.000001 -0.000000 -0.000000 2.273526 0.000000 -0.000000 0.000000 -69.129458 -3.870914 5.904199 0.410333 -4.666976 -0.291792 -22.421653 -0.000000 0.000002 -0.000000 0.000000 -0.000000 69.440990 3.869100 6.147202 -0.344955 4.664612 -0.104232 24.268806 -0.000003 -0.000002 0.000000 0.000000 0.000001 0.000000 0.000000 0.000001 -0.000000 0.000000 0.000000 -0.000000 0.000000 0.000000 -0.000000 0.000000 -0.000000 -0.000000 0.000000 0.000000 
0.000000 0.000000 0.000000 0.000000 -0.000000 0.000000 0.000000 -0.000000 6.856570 -0.000000 -0.000000 -0.000000 0.000000 0.000000 0.000001 -0.000000 -0.000000 2.758841 0.000000 -0.000000 -0.000001 -68.288901 -4.799959 7.098774 0.490861 -5.660925 -0.368062 -22.421653 0.000002 0.000001 -0.000000 0.000000 -0.000001 68.574840 4.805259 7.391351 -0.411155 5.658933 -0.139078 24.268804 -0.000003 0.000000 0.000000 0.000000 0.000001 0.000000 0.000000 0.000001 -0.000000 0.000000 0.000000 -0.000000 0.000000 0.000000 -0.000000 0.000000 -0.000000 -0.000000 0.000000 0.000000 
0.000000 0.000000 0.000000 0.000000 -0.000000 0.000000 0.000000 -0.000000 8.152164 -0.000000 -0.000000 -0.000000 0.000000 0.000000 0.000000 -0.000000 -0.000000 3.280143 -0.000000 -0.000000 -0.000002 -67.423249 -5.834411 8.356446 0.574870 -6.727607 -0.455276 -22.421650 -0.000000 0.000004 -0.000000 0.000000 0.000001 67.683439 5.849987 8.701299 -0.479587 6.726372 -0.181231 24.268804 -0.000001 -0.000002 0.000000 0.000000 0.000001 0.000000 0.000000 0.000001 -0.000000 0.000000 0.000000 -0.000000 0.000000 0.000000 -0.000000 0.000000 -0.000000 -0.000000 0.000000 0.000000 
0.000000 0.000000 0.000000 0.000000 -0.000000 0.000000 0.000000 -0.000000 9.530037 -0.000000 -0.000000 0.000002 0.000000 0.000000 0.000001 -0.000000 -0.000001 3.834550 0.000000 -0.000000 -0.000001 -66.545474 -6.974041 9.665481 0.661507 -7.860900 -0.553943 -22.421650 0.000000 -0.000001 -0.000000 0.000000 -0.000001 66.780371 7.003390 10.064807 -0.549428 7.860869 -0.231342 24.268804 -0.000004 0.000003 0.000000 0.000000 0.000001 0.000000 0.000000 0.000001 -0.000000 0.000000 0.000000 -0.000000 0.000000 0.000000 -0.000000 0.000000 -0.000000 -0.000000 0.000000 0.000000 
0.000000 0.000000 0.000000 0.000000 -0.000000 0.000000 0.000000 -0.000000 10.983034 -0.000000 -0.000000 0.000002 -0.000000 -0.000000 -0.000001 -0.000000 -0.000001 4.419184 0.000000 0.000000 -0.000001 -65.668260 -8.217515 11.014753 0.749991 -9.054680 -0.664498 -22.421653 0.000000 -0.000000 -0.000000 0.000000 -0.000002 65.878950 8.264357 11.470289 -0.619952 9.056383 -0.289958 24.268799 -0.000002 -0.000003 0.000000 0.000000 0.000001 0.000000 0.000000 0.000001 -0.000000 0.000000 0.000000 -0.000000 0.000000 0.000000 -0.000000 0.000000 -0.000000 -0.000000 0.000000 0.000000 
0.000000 0.000000 0.000000 0.000000 -0.000000 0.000000 0.000000 -0.000000 12.504000 -0.000000 -0.000000 -0.000000 -0.000000 0.000000 0.000000 -0.000000 -0.000001 5.031167 0.000000 -0.000000 -0.000001 -64.803844 -9.562308 12.393901 0.839632 -10.302822 -0.787265 -22.421652 0.000001 0.000003 -0.000000 0.000000 0.000000 64.992009 9.630498 12.906963 -0.690444 10.306853 -0.357548 24.268799 -0.000001 -0.000001 0.000000 0.000000 0.000001 0.000000 0.000000 0.000001 -0.000000 0.000000 0.000000 -0.000000 0.000000 0.000000 -0.000000 0.000000 -0.000000 -0.000000 0.000000 0.000000 
0.000000 0.000000 0.000000 0.000000 -0.000000 0.000000 0.000000 -0.000000 14.085781 -0.000000 -0.000000 -0.000000 0.000000 0.000000 0.000000 -0.000001 -0.000001 5.667621 0.000000 -0.000000 -0.000001 -63.963827 -11.004646 13.793492 0.929804 -11.599218 -0.922467 -22.421650 0.000000 -0.000000 -0.000000 0.000000 0.000000 64.131768 11.098068 14.365046 -0.760356 11.606217 -0.434471 24.268803 0.000000 0.000000 0.000000 0.000000 0.000001 0.000000 0.000000 0.000001 -0.000000 0.000000 0.000000 -0.000000 0.000000 0.000000 -0.000000 0.000000 -0.000000 -0.000000 0.000000 0.000000 
